<?xml version="1.0" encoding="UTF-8"?>
<svg xmlns="http://www.w3.org/2000/svg" width="222" height="60" viewBox="0 0 222 60" fill="none">
  <g clip-path="url(#clip0_516_8118)">
    <path d="M0 0.445312H10.5907C16.5764 0.445312 19.7586 3.01046 19.7586 7.73397C19.7586 10.6727 17.9239 12.5322 16.2785 13.3125C18.6728 14.2783 20.5437 16.4366 20.5437 19.5967C20.5437 24.3202 17.214 27.1455 11.2644 27.1455H0V0.445312ZM9.84173 10.8968C11.7878 10.8968 12.8346 10.1165 12.8346 8.62776C12.8346 7.13904 11.7878 6.3587 9.84173 6.3587H7.07157V10.8968H9.84173ZM7.07157 21.1989H10.5127C12.3836 21.1989 13.4694 20.2332 13.4694 18.7804C13.4694 17.3277 12.3836 16.3619 10.5127 16.3619H7.07157V21.1961V21.1989Z" fill="black"></path>
    <path d="M29.7844 27.151H22.4512V0.445312H32.2177C38.8411 0.445312 42.9198 3.64413 42.9198 9.37212C42.9198 12.7951 41.3106 15.4349 38.5042 16.9209L43.407 27.1483H35.4361L31.3936 18.2962H29.7844V27.1483V27.151ZM31.8419 12.535C34.4227 12.535 35.6589 11.3451 35.6589 9.56029C35.6589 7.66479 34.4255 6.54687 31.8419 6.54687H29.7844V12.535H31.8419Z" fill="black"></path>
    <path d="M64.4707 27.151H44.8262V20.9775H51.0013V6.61881H44.8262V0.445312H64.4707V6.61881H58.3345V20.9748H64.4707V27.1483V27.151Z" fill="black"></path>
    <path d="M69.5601 17.8509C71.7679 20.416 74.6856 21.6446 77.3444 21.6446C79.5522 21.6446 81.0111 20.7896 81.0111 19.2649C81.0111 17.516 79.1401 17.2559 75.1366 16.4396C71.3559 15.6952 67.0906 14.32 67.0906 8.89084C67.0906 3.4617 71.8041 0 77.5671 0C82.0941 0 85.6883 1.82355 87.7458 4.12858L83.9288 9.00152C82.2082 6.9566 79.9253 5.84144 77.3444 5.84144C75.4345 5.84144 74.0898 6.66052 74.0898 8.07176C74.0898 9.59646 75.699 9.93128 78.8784 10.565C82.9209 11.42 88.0074 12.5739 88.0074 18.5233C88.0074 24.4726 83.1047 27.5995 77.0799 27.5995C72.8147 27.5995 67.8757 25.9254 65.668 23.1748L69.5601 17.8564V17.8509Z" fill="black"></path>
    <path d="M89.8027 0.445312H100.393C106.379 0.445312 109.561 3.01046 109.561 7.73397C109.561 10.6727 107.727 12.5322 106.081 13.3125C108.476 14.2783 110.346 16.4366 110.346 19.5967C110.346 24.3202 107.017 27.1455 101.067 27.1455H89.8027V0.445312ZM99.6445 10.8968C101.591 10.8968 102.637 10.1165 102.637 8.62776C102.637 7.13904 101.591 6.3587 99.6445 6.3587H96.8743V10.8968H99.6445ZM96.8743 21.1989H100.315C102.186 21.1989 103.272 20.2332 103.272 18.7804C103.272 17.3277 102.186 16.3619 100.315 16.3619H96.8743V21.1961V21.1989Z" fill="black"></path>
    <path d="M126.323 0.445312L133.096 27.1483H125.95L125.014 22.8343H118.914L117.979 27.1483H110.982L117.717 0.445312H126.323ZM120.148 16.9956H123.739L121.943 8.62776L120.148 16.9956Z" fill="black"></path>
    <path d="M154.235 27.151H147.762L141.44 13.2046V27.151H134.705V0.445312H141.891L147.504 13.5007V0.445312H154.238V27.1483L154.235 27.151Z" fill="black"></path>
    <path d="M177.098 0.445312V6.61881H164.374V10.598H174.965V16.622H164.374V20.9748H177.098V27.1483H157.152V0.445312H177.098Z" fill="black"></path>
    <path d="M7.33327 59.5545H0V32.8516H9.87793C16.5013 32.8516 20.5437 35.9757 20.5437 41.9638C20.5437 47.9519 16.5013 51.04 9.87793 51.04H7.33327V59.5573V59.5545ZM9.50486 44.9744C12.0857 44.9744 13.3218 43.8205 13.3218 41.961C13.3218 40.1015 12.0857 38.9476 9.50486 38.9476H7.33327V44.9717H9.50486V44.9744Z" fill="black"></path>
    <path d="M21.4766 46.2032C21.4766 38.1702 25.8169 32.4062 32.2148 32.4062C38.6126 32.4062 42.953 38.1702 42.953 46.2032C42.953 54.2363 38.6126 60.003 32.2148 60.003C25.8169 60.003 21.4766 54.239 21.4766 46.2032ZM28.6623 46.2032C28.6623 50.852 29.8232 53.6801 32.2176 53.6801C34.6119 53.6801 35.7728 50.8548 35.7728 46.2032C35.7728 41.5517 34.6119 38.7264 32.2176 38.7264C29.8232 38.7264 28.6623 41.5517 28.6623 46.2032Z" fill="black"></path>
    <path d="M56.9865 32.8516L58.5957 46.762L60.0545 32.8516H65.7786L62.4099 59.5545H56.8333L54.6618 45.6828L52.4902 59.5545H46.9137L43.5449 32.8516H49.3831L50.9172 46.762L52.5626 32.8516H56.9781H56.9865Z" fill="black"></path>
    <path d="M87.2967 32.8516V39.0251H74.5735V43.0042H85.1641V49.0283H74.5735V53.381H87.2967V59.5545H67.3516V32.8516H87.2967Z" fill="black"></path>
    <path d="M97.136 59.5545H89.8027V32.8516H99.5693C106.193 32.8516 110.271 36.0504 110.271 41.7784C110.271 45.2013 108.662 47.8412 105.856 49.3271L110.759 59.5545H102.788L98.7452 50.7024H97.136V59.5545ZM99.1934 44.9384C101.774 44.9384 103.01 43.7486 103.01 41.9638C103.01 40.0683 101.777 38.9503 99.1934 38.9503H97.136V44.9384H99.1934Z" fill="black"></path>
    <path d="M131.784 32.8516V59.5545H124.451V49.067H119.587V59.5545H112.254V32.8516H119.587V42.9295H124.451V32.8516H131.784Z" fill="black"></path>
    <path d="M133.73 46.2032C133.73 38.1702 138.071 32.4062 144.469 32.4062C150.867 32.4062 155.207 38.1702 155.207 46.2032C155.207 54.2363 150.867 60.003 144.469 60.003C138.071 60.003 133.73 54.239 133.73 46.2032ZM140.916 46.2032C140.916 50.852 142.077 53.6801 144.471 53.6801C146.866 53.6801 148.027 50.8548 148.027 46.2032C148.027 41.5517 146.866 38.7264 144.471 38.7264C142.077 38.7264 140.916 41.5517 140.916 46.2032Z" fill="black"></path>
    <path d="M156.855 49.4378V32.8516H164.002V49.2524C164.002 52.2271 165.049 53.5304 166.92 53.5304C168.791 53.5304 169.838 52.2299 169.838 49.2524V32.8516H176.984V49.4378C176.984 56.3557 173.167 60 166.92 60C160.672 60 156.855 56.3557 156.855 49.4378Z" fill="black"></path>
    <path d="M181.812 50.2573C184.02 52.8224 186.938 54.051 189.596 54.051C191.804 54.051 193.263 53.196 193.263 51.6713C193.263 49.9224 191.392 49.6623 187.389 48.846C183.608 48.1017 179.343 46.7264 179.343 41.2973C179.343 35.8681 184.059 32.4092 189.819 32.4092C194.346 32.4092 197.94 34.2327 199.998 36.5378L196.181 41.4107C194.46 39.3658 192.177 38.2506 189.596 38.2506C187.686 38.2506 186.342 39.0697 186.342 40.4809C186.342 42.0056 187.951 42.3405 191.13 42.9741C195.173 43.8292 200.259 44.9831 200.259 50.9324C200.259 56.8818 195.357 60.0087 189.332 60.0087C185.067 60.0087 180.128 58.3346 177.92 55.584L181.812 50.2656V50.2573Z" fill="black"></path>
    <path d="M222 32.8516V39.0251H209.277V43.0042H219.867V49.0283H209.277V53.381H222V59.5545H202.055V32.8516H222Z" fill="black"></path>
  </g>
  <defs>
    <clipPath id="clip0_516_8118">
      <rect width="222" height="60" fill="black"></rect>
    </clipPath>
  </defs>
</svg>
